<?xml version="1.0" encoding="UTF-8" standalone="no"?>
<!-- Created with Inkscape (http://www.inkscape.org/) -->

<svg
   xmlns:dc="http://purl.org/dc/elements/1.1/"
   xmlns:cc="http://creativecommons.org/ns#"
   xmlns:rdf="http://www.w3.org/1999/02/22-rdf-syntax-ns#"
   xmlns:svg="http://www.w3.org/2000/svg"
   xmlns="http://www.w3.org/2000/svg"
   xmlns:xlink="http://www.w3.org/1999/xlink"
   xmlns:sodipodi="http://sodipodi.sourceforge.net/DTD/sodipodi-0.dtd"
   xmlns:inkscape="http://www.inkscape.org/namespaces/inkscape"
   width="210mm"
   height="297mm"
   viewBox="0 0 210 297"
   version="1.1"
   id="svg3243"
   inkscape:version="0.92.3 (2405546, 2018-03-11)"
   sodipodi:docname="hawt_aid.svg">
  <defs
     id="defs3237">
    <path
       style="opacity:1;vector-effect:none;fill:none;fill-opacity:1;stroke:#f9f9f9;stroke-width:0.26458332;stroke-linecap:butt;stroke-linejoin:miter;stroke-miterlimit:4;stroke-dasharray:none;stroke-dashoffset:0;stroke-opacity:1;marker:none"
       id="path1538-1"
       sodipodi:type="arc"
       sodipodi:cx="112.90473"
       sodipodi:cy="170.42186"
       sodipodi:rx="139.98041"
       sodipodi:ry="86.51265"
       sodipodi:start="4.1123979"
       sodipodi:end="5.4005618"
       d="M 33.866879,99.019453 A 139.98041,86.51265 0 0 1 201.81006,103.59881"
       sodipodi:open="true" />
  </defs>
  <sodipodi:namedview
     id="base"
     pagecolor="#ffffff"
     bordercolor="#666666"
     borderopacity="1.0"
     inkscape:pageopacity="0.0"
     inkscape:pageshadow="2"
     inkscape:zoom="0.98994949"
     inkscape:cx="308.83954"
     inkscape:cy="645.30705"
     inkscape:document-units="mm"
     inkscape:current-layer="layer1"
     showgrid="false" />
  <metadata
     id="metadata3240">
    <rdf:RDF>
      <cc:Work
         rdf:about="">
        <dc:format>image/svg+xml</dc:format>
        <dc:type
           rdf:resource="http://purl.org/dc/dcmitype/StillImage" />
        <dc:title></dc:title>
      </cc:Work>
    </rdf:RDF>
  </metadata>
  <g
     inkscape:label="Layer 1"
     inkscape:groupmode="layer"
     id="layer1"
     style="display:inline">
    <path
       style="fill:#000000;stroke-width:0.26458332"
       d="m 127.34863,98.4496 c 4.65119,-0.0858 9.13925,2.27433 12.84572,6.80475 1.60957,1.96737 3.58221,5.09903 3.58221,5.687 0,0.50397 -0.69189,0.8672 -2.31562,1.21543 l -1.29811,0.27853 -1.34049,3.22874 c -2.19309,5.2818 -3.53252,9.75083 -3.699,12.34292 -0.26604,4.14253 0.56138,6.16561 5.57124,13.62036 3.59159,5.34433 5.22628,7.98287 6.65076,12.47469 1.20124,3.78787 1.92235,7.88028 1.47898,11.82925 -0.65128,5.80079 -2.74396,11.59841 -5.97173,16.46204 -2.72553,4.10685 -6.71236,7.47906 -10.84998,10.04642 -0.72761,0.41071 -1.33977,0.75903 -1.36064,0.77411 -0.0209,0.0151 0.18037,0.86083 0.44751,1.87947 0.66135,2.52177 0.64483,3.3624 -0.0791,4.02095 -1.43857,1.30871 -5.69139,2.43532 -11.8401,3.13676 -2.07022,0.23617 -7.58151,0.57804 -11.37708,0.51026 -3.66638,-0.0655 -8.6763,-0.40096 -10.96523,-0.88492 -5.36764,-1.1349 -10.43962,-3.20412 -11.13111,-4.54132 -0.5408,-1.04582 -0.4967,-1.57207 0.25063,-2.9776 l 0.64441,-1.21129 -1.37511,-1.0604 c -2.72588,-2.103 -7.68123,-7.66648 -10.45931,-11.74296 -0.50876,-0.74654 -1.94018,-2.07761 -3.5264,-3.27887 -10.64041,-8.05807 -16.39773,-15.83796 -19.00401,-25.68112 -1.98709,-7.50466 -1.69474,-17.86941 0.66767,-23.6833 2.1108,-5.19473 7.96368,-10.56694 13.65136,-12.52999 5.70337,-1.96847 10.13738,-0.68587 15.54116,4.49534 l 1.67898,1.60972 -0.17983,-1.7198 c -0.0987,-0.94588 -0.41471,-2.8811 -0.70229,-4.29999 -0.28757,-1.41889 -0.48597,-3.02624 -0.4408,-3.57188 l 0.0822,-0.99167 7.54062,-0.007 c 5.97339,-0.006 7.95306,-0.0966 9.525,-0.43925 4.16824,-0.90859 6.58095,-2.02331 16.53646,-7.63829 4.4756,-2.52428 6.9387,-3.58455 9.2196,-3.96927 0.66931,-0.1129 1.33697,-0.17533 2.00142,-0.18759 z m -58.18457,22.04258 c -3.05496,-0.0109 -4.57101,0.72813 -7.14375,3.483 -4.0126,4.29665 -5.72333,10.14149 -4.74648,16.21709 0.88332,5.49391 5.12525,13.96399 7.83105,15.63626 0.75185,0.46467 1.46513,0.62496 3.11247,0.69866 1.1754,0.0526 2.29264,-0.0107 2.48253,-0.14056 0.1899,-0.1299 0.50855,-1.01624 0.70797,-1.96939 0.53821,-2.57238 1.54122,-4.86594 3.7667,-8.61446 4.15788,-7.00339 5.80287,-10.68496 6.08696,-13.62035 0.13431,-1.38771 0.056,-1.71303 -0.85576,-3.55792 -1.37629,-2.78474 -4.5383,-5.98934 -7.14065,-7.23677 -1.64575,-0.78889 -2.10263,-0.88844 -4.10104,-0.89556 z"
       id="path3199"
       inkscape:connector-curvature="0"
       sodipodi:nodetypes="csscccssaaaccccsasccccssssscccscccssssccsccccsssccc" />
    <path
       style="fill:#ffffff;stroke-width:0.35417941"
       id="path4"
       inkscape:connector-curvature="0"
       d="m 132.63476,169.27685 c 0,-5.24185 -1.41672,-9.49201 -3.68347,-12.75046 0,6.44606 -1.55839,8.71282 -4.95851,8.71282 -2.26675,0 -4.60433,-1.70006 -4.60433,-4.60433 0,-2.62094 1.7709,-7.36694 1.7709,-12.46713 0,-5.10018 -1.70007,-10.55454 -8.64198,-14.59218 1.55839,4.10848 2.19591,7.57943 2.19591,10.41287 0,7.5086 -4.5335,10.90873 -8.57114,10.90873 -3.25845,0 -6.658584,-2.12508 -6.658584,-8.2878 -2.19591,2.40842 -3.18761,5.17102 -3.18761,7.93361 0,4.39183 2.40841,8.2878 2.40841,11.8296 0,2.90427 -2.33758,4.60434 -4.60433,4.60434 -4.03765,0 -5.24185,-3.61264 -5.24185,-9.56285 -1.20422,2.05423 -2.26675,6.09189 -2.26675,9.56285 0,10.34203 9.77535,17.85064 20.684084,17.85064 -9.208674,-3.47096 -10.908734,-8.07529 -10.908734,-13.24632 2.26675,4.03765 4.604344,4.60433 5.737714,4.60433 6.94192,0 -0.56668,-13.24631 11.54625,-22.45497 -1.9834,4.25015 -2.7626,7.93362 -2.7626,10.90873 0,6.37523 3.47096,9.84619 6.80025,9.84619 2.83343,0 5.66687,-2.26676 6.80024,-7.08359 0,6.7294 -1.9834,13.10463 -10.83789,17.42563 13.813,-2.26676 18.98402,-10.90873 18.98402,-19.55071 z" />
  </g>
  <g
     inkscape:groupmode="layer"
     id="layer3"
     inkscape:label="below straight"
     style="display:none">
    <text
       y="240.21852"
       x="32.859859"
       xml:space="preserve"
       style="font-style:normal;font-variant:normal;font-weight:normal;font-stretch:normal;font-size:46.98365402px;line-height:1.25;font-family:'Kool Beans';-inkscape-font-specification:'Kool Beans';letter-spacing:0px;word-spacing:0px;fill:#000000;fill-opacity:1;stroke:none;stroke-width:1.1745913"
       id="text851-8"><tspan
         id="tspan849-4"
         style="font-style:normal;font-variant:normal;font-weight:normal;font-stretch:normal;font-family:'Kool Beans';-inkscape-font-specification:'Kool Beans';stroke-width:1.1745913">Hawt-Aid</tspan></text>
  </g>
  <g
     inkscape:groupmode="layer"
     id="layer4"
     inkscape:label="above shadow"
     style="display:inline">
    <g
       id="g1613"
       transform="translate(-4.0038871,1.5875)">
      <text
         y="107.45396"
         x="12.386711"
         xml:space="preserve"
         style="font-style:normal;font-variant:normal;font-weight:normal;font-stretch:normal;font-size:46.98365402px;line-height:1.25;font-family:'Kool Beans';-inkscape-font-specification:'Kool Beans';letter-spacing:0px;word-spacing:0px;display:inline;fill:#000000;fill-opacity:1;stroke:#000000;stroke-width:4;stroke-miterlimit:4;stroke-dasharray:none"
         id="text1603"
         transform="rotate(-13.988692)"><tspan
           id="tspan1601"
           style="font-style:normal;font-variant:normal;font-weight:normal;font-stretch:normal;font-family:'Kool Beans';-inkscape-font-specification:'Kool Beans';stroke:#000000;stroke-width:4;stroke-miterlimit:4;stroke-dasharray:none">Hawt-Aid</tspan></text>
      <text
         transform="rotate(-13.988692)"
         id="text851-8-1"
         style="font-style:normal;font-variant:normal;font-weight:normal;font-stretch:normal;font-size:46.98365402px;line-height:1.25;font-family:'Kool Beans';-inkscape-font-specification:'Kool Beans';letter-spacing:0px;word-spacing:0px;display:inline;fill:#ffffff;fill-opacity:1;stroke:#000000;stroke-width:4;stroke-linecap:square;stroke-linejoin:miter;stroke-miterlimit:4;stroke-dasharray:none;paint-order:stroke fill markers"
         xml:space="preserve"
         x="9.4319754"
         y="103.99117"><tspan
           style="font-style:normal;font-variant:normal;font-weight:normal;font-stretch:normal;font-family:'Kool Beans';-inkscape-font-specification:'Kool Beans';fill:#ffffff;stroke:#000000;stroke-width:4;stroke-linecap:square;stroke-linejoin:miter;stroke-miterlimit:4;stroke-dasharray:none;paint-order:stroke fill markers"
           id="tspan849-4-6">Hawt-Aid</tspan></text>
    </g>
  </g>
  <g
     inkscape:groupmode="layer"
     id="layer2"
     inkscape:label="text above curved"
     style="display:none">
    <path
       style="opacity:1;vector-effect:none;fill:none;fill-opacity:1;stroke:#f9f9f9;stroke-width:0.26458332;stroke-linecap:butt;stroke-linejoin:miter;stroke-miterlimit:4;stroke-dasharray:none;stroke-dashoffset:0;stroke-opacity:1;marker:none"
       id="path1538"
       d="M 33.866879,99.019453 A 139.98041,86.51265 0 0 1 185.9713,96.630073"
       sodipodi:type="arc"
       sodipodi:start="4.1123979"
       sodipodi:end="5.2615562"
       sodipodi:ry="86.51265"
       sodipodi:rx="139.98041"
       sodipodi:cy="170.42186"
       sodipodi:cx="112.90473"
       sodipodi:open="true" />
    <text
       xml:space="preserve"
       style="font-style:normal;font-variant:normal;font-weight:normal;font-stretch:normal;font-size:46.98365402px;line-height:1.25;font-family:'Kool Beans';-inkscape-font-specification:'Kool Beans';letter-spacing:0px;word-spacing:0px;fill:#000000;fill-opacity:1;stroke:none;stroke-width:1.1745913"
       id="text851"><textPath
         xlink:href="#path1538"
         id="textPath1540"><tspan
   style="font-style:normal;font-variant:normal;font-weight:normal;font-stretch:normal;font-family:'Kool Beans';-inkscape-font-specification:'Kool Beans';stroke-width:1.1745913"
   id="tspan849">Hawt-Aid</tspan></textPath></text>
  </g>
</svg>
